name C:/MyDriveSym/Projects/mobilecap/Data\Session20210823_0002\mocap\ForceDataProcessed\walking1_forces.mot
datacolumns 19
datarows 9
range 1.07200000 1.07600000
endheader 
time	R_ground_force_vx	R_ground_force_vy	R_ground_force_vz	R_ground_force_px	R_ground_force_py	R_ground_force_pz	R_ground_torque_x	R_ground_torque_y	R_ground_torque_z	L_ground_force_vx	L_ground_force_vy	L_ground_force_vz	L_ground_force_px	L_ground_force_py	L_ground_force_pz	L_ground_torque_x	L_ground_torque_y	L_ground_torque_z	
          1.07200000	          0.00000000	          0.00000000	          0.00000000	          1.31565500	          0.00000000	         -0.13920000	          0.00000000	          0.00000000	          0.00000000	         29.82652000	        593.06337300	         34.93840000	          1.01398100	          0.00600000	         -0.29478700	          0.00000000	          4.35247800	          0.00000000	
          1.07250000	          0.00000000	          0.00000000	          0.00000000	          1.31688500	          0.00000000	         -0.13921300	          0.00000000	          0.00000000	          0.00000000	         30.10009900	        593.89436600	         35.10937700	          1.01402700	          0.00600000	         -0.29479900	          0.00000000	          4.34429000	          0.00000000	
          1.07300000	          0.00000000	          0.00000000	          0.00000000	          1.31811500	          0.00000000	         -0.13922500	          0.00000000	          0.00000000	          0.00000000	         30.37506300	        594.72439800	         35.27974900	          1.01407200	          0.00600000	         -0.29480900	          0.00000000	          4.33629800	          0.00000000	
          1.07350000	          0.00000000	          0.00000000	          0.00000000	          1.31934400	          0.00000000	         -0.13923800	          0.00000000	          0.00000000	          0.00000000	         30.65135700	        595.55332800	         35.44950500	          1.01411700	          0.00600000	         -0.29481900	          0.00000000	          4.32851100	          0.00000000	
          1.07400000	          0.00000000	          0.00000000	          0.00000000	          1.32057400	          0.00000000	         -0.13925000	          0.00000000	          0.00000000	          0.00000000	         30.92891200	        596.38104400	         35.61863700	          1.01416200	          0.00600000	         -0.29482900	          0.00000000	          4.32093700	          0.00000000	
          1.07450000	          0.00000000	          0.00000000	          0.00000000	          1.32180400	          0.00000000	         -0.13926300	          0.00000000	          0.00000000	          0.00000000	         31.20764900	        597.20745600	         35.78714800	          1.01420700	          0.00600000	         -0.29483900	          0.00000000	          4.31357100	          0.00000000	
          1.07500000	          0.00000000	          0.00000000	          0.00000000	          1.32303400	          0.00000000	         -0.13927500	          0.00000000	          0.00000000	          0.00000000	         31.48747800	        598.03247600	         35.95504400	          1.01425200	          0.00600000	         -0.29484800	          0.00000000	          4.30641000	          0.00000000	
          1.07550000	          0.00000000	          0.00000000	          0.00000000	          1.32426400	          0.00000000	         -0.13928800	          0.00000000	          0.00000000	          0.00000000	         31.76831600	        598.85602800	         36.12232900	          1.01429700	          0.00600000	         -0.29485600	          0.00000000	          4.29944700	          0.00000000	
          1.07600000	          0.00000000	          0.00000000	          0.00000000	          1.32549300	          0.00000000	         -0.13930000	          0.00000000	          0.00000000	          0.00000000	         32.05008600	        599.67804700	         36.28899900	          1.01434100	          0.00600000	         -0.29486500	          0.00000000	          4.29267900	          0.00000000	
